<svg width="16" height="17" viewBox="0 0 16 17" fill="none" xmlns="http://www.w3.org/2000/svg">
<path fill-rule="evenodd" clip-rule="evenodd" d="M12.6 7.1C12.6 3.62061 9.77939 0.800003 6.3 0.800003C2.82061 0.800003 0 3.62061 0 7.1C0 10.5794 2.82061 13.4 6.3 13.4C7.66364 13.4 8.92609 12.9668 9.95721 12.2304L13.9648 16.2376L14.057 16.3182C14.4098 16.5866 14.9154 16.5598 15.2376 16.2376C15.5891 15.8861 15.5891 15.3163 15.2376 14.9648L11.2589 10.9863C12.099 9.91575 12.6 8.56638 12.6 7.1ZM1.2 7.1C1.2 4.28335 3.48335 2 6.3 2C9.11665 2 11.4 4.28335 11.4 7.1C11.4 9.91666 9.11665 12.2 6.3 12.2C3.48335 12.2 1.2 9.91666 1.2 7.1Z" fill="#8E8E93"/>
</svg>
